<svg width="300" height="200" viewBox="0 0 300 200" xmlns="http://www.w3.org/2000/svg">
  <defs>
    <linearGradient id="labGradient" x1="0%" y1="0%" x2="100%" y2="100%">
      <stop offset="0%" style="stop-color:#059669;stop-opacity:1" />
      <stop offset="100%" style="stop-color:#047857;stop-opacity:1" />
    </linearGradient>
    <linearGradient id="flaskGradient" x1="0%" y1="0%" x2="100%" y2="100%">
      <stop offset="0%" style="stop-color:#10B981;stop-opacity:1" />
      <stop offset="100%" style="stop-color:#059669;stop-opacity:1" />
    </linearGradient>
  </defs>

  <!-- Background -->
  <rect width="300" height="200" fill="#F0FDF4" rx="10" />

  <!-- Lab Table -->
  <rect x="20" y="140" width="260" height="40" fill="url(#labGradient)" rx="5" />

  <!-- Flask 1 -->
  <ellipse cx="80" cy="140" rx="15" ry="8" fill="url(#flaskGradient)" />
  <rect x="70" y="120" width="20" height="20" fill="url(#flaskGradient)" rx="2" />
  <rect x="77" y="110" width="6" height="15" fill="#047857" />
  <circle cx="80" cy="108" r="3" fill="#047857" />

  <!-- Flask 2 -->
  <ellipse cx="150" cy="140" rx="12" ry="6" fill="#3B82F6" />
  <rect x="142" y="125" width="16" height="15" fill="#3B82F6" rx="2" />
  <rect x="148" y="115" width="4" height="12" fill="#1E40AF" />
  <circle cx="150" cy="113" r="2" fill="#1E40AF" />

  <!-- Flask 3 -->
  <ellipse cx="220" cy="140" rx="18" ry="10" fill="#8B5CF6" />
  <rect x="208" y="115" width="24" height="25" fill="#8B5CF6" rx="3" />
  <rect x="218" y="105" width="4" height="15" fill="#7C3AED" />
  <circle cx="220" cy="103" r="2" fill="#7C3AED" />

  <!-- Molecules -->
  <g transform="translate(50, 30)">
    <circle cx="0" cy="0" r="8" fill="#3B82F6" opacity="0.7" />
    <circle cx="20" cy="10" r="6" fill="#10B981" opacity="0.7" />
    <circle cx="15" cy="-15" r="5" fill="#8B5CF6" opacity="0.7" />
    <line x1="0" y1="0" x2="20" y2="10" stroke="#6B7280" stroke-width="2" />
    <line x1="0" y1="0" x2="15" y2="-15" stroke="#6B7280" stroke-width="2" />
  </g>

  <!-- DNA Helix -->
  <g transform="translate(200, 40)">
    <path d="M0 0 Q10 10 0 20 Q-10 30 0 40 Q10 50 0 60"
      stroke="#059669" stroke-width="3" fill="none" />
    <path d="M20 0 Q10 10 20 20 Q30 30 20 40 Q10 50 20 60"
      stroke="#3B82F6" stroke-width="3" fill="none" />
    <line x1="0" y1="10" x2="20" y2="10" stroke="#6B7280" stroke-width="1" />
    <line x1="0" y1="30" x2="20" y2="30" stroke="#6B7280" stroke-width="1" />
    <line x1="0" y1="50" x2="20" y2="50" stroke="#6B7280" stroke-width="1" />
  </g>

  <!-- Microscope -->
  <g transform="translate(120, 50)">
    <rect x="0" y="30" width="30" height="8" fill="#374151" rx="2" />
    <rect x="10" y="20" width="10" height="20" fill="#374151" />
    <circle cx="15" cy="15" r="8" fill="#6B7280" />
    <circle cx="15" cy="15" r="5" fill="#9CA3AF" />
    <rect x="12" y="0" width="6" height="10" fill="#374151" />
  </g>
</svg>