<svg width="300" height="200" viewBox="0 0 300 200" xmlns="http://www.w3.org/2000/svg">
  <defs>
    <linearGradient id="warehouseGradient" x1="0%" y1="0%" x2="100%" y2="100%">
      <stop offset="0%" style="stop-color:#0D9488;stop-opacity:1" />
      <stop offset="100%" style="stop-color:#0F766E;stop-opacity:1" />
    </linearGradient>
    <linearGradient id="boxGradient" x1="0%" y1="0%" x2="100%" y2="100%">
      <stop offset="0%" style="stop-color:#F59E0B;stop-opacity:1" />
      <stop offset="100%" style="stop-color:#D97706;stop-opacity:1" />
    </linearGradient>
  </defs>

  <!-- Background -->
  <rect width="300" height="200" fill="#F0FDFA" rx="10" />

  <!-- Warehouse Building -->
  <rect x="50" y="80" width="200" height="100" fill="url(#warehouseGradient)" rx="5" />

  <!-- Roof -->
  <polygon points="40,80 150,40 260,80" fill="#0F766E" />

  <!-- Door -->
  <rect x="130" y="130" width="40" height="50" fill="#374151" rx="3" />
  <rect x="135" y="135" width="30" height="40" fill="#4B5563" rx="2" />
  <circle cx="160" cy="155" r="2" fill="#9CA3AF" />

  <!-- Windows -->
  <rect x="80" y="100" width="20" height="15" fill="#60A5FA" rx="2" />
  <rect x="200" y="100" width="20" height="15" fill="#60A5FA" rx="2" />

  <!-- Storage Shelves -->
  <g transform="translate(70, 140)">
    <!-- Shelf Structure -->
    <rect x="0" y="0" width="60" height="30" fill="#6B7280" opacity="0.3" />

    <!-- Boxes on Shelf -->
    <rect x="5" y="5" width="12" height="10" fill="url(#boxGradient)" rx="1" />
    <rect x="20" y="5" width="12" height="10" fill="#3B82F6" rx="1" />
    <rect x="35" y="5" width="12" height="10" fill="#8B5CF6" rx="1" />

    <rect x="5" y="17" width="12" height="10" fill="#10B981" rx="1" />
    <rect x="20" y="17" width="12" height="10" fill="#EF4444" rx="1" />
    <rect x="35" y="17" width="12" height="10" fill="url(#boxGradient)" rx="1" />
  </g>

  <g transform="translate(170, 140)">
    <!-- Shelf Structure -->
    <rect x="0" y="0" width="60" height="30" fill="#6B7280" opacity="0.3" />

    <!-- Boxes on Shelf -->
    <rect x="5" y="5" width="12" height="10" fill="#8B5CF6" rx="1" />
    <rect x="20" y="5" width="12" height="10" fill="#10B981" rx="1" />
    <rect x="35" y="5" width="12" height="10" fill="#3B82F6" rx="1" />

    <rect x="5" y="17" width="12" height="10" fill="url(#boxGradient)" rx="1" />
    <rect x="20" y="17" width="12" height="10" fill="#EF4444" rx="1" />
    <rect x="35" y="17" width="12" height="10" fill="#10B981" rx="1" />
  </g>

  <!-- Forklift -->
  <g transform="translate(20, 150)">
    <rect x="0" y="10" width="25" height="15" fill="#F59E0B" rx="2" />
    <rect x="20" y="5" width="8" height="20" fill="#D97706" />
    <circle cx="5" cy="27" r="4" fill="#374151" />
    <circle cx="20" cy="27" r="4" fill="#374151" />
    <rect x="25" y="0" width="3" height="15" fill="#6B7280" />
  </g>

  <!-- Quality Control Icons -->
  <g transform="translate(250, 60)">
    <circle cx="0" cy="0" r="12" fill="#10B981" opacity="0.8" />
    <path d="M-6 0 L-2 4 L6 -4" stroke="white" stroke-width="2" fill="none" />
  </g>

  <!-- Temperature Control -->
  <g transform="translate(20, 60)">
    <rect x="0" y="0" width="8" height="20" fill="#3B82F6" rx="4" />
    <circle cx="4" cy="22" r="6" fill="#3B82F6" />
    <rect x="2" y="5" width="4" height="12" fill="#60A5FA" />
  </g>
</svg>